# xmcd
#
# Track frame offsets:
#	182
#	10137
#	25240
#	35862
#	48395
#	60122
#	69570
#	84605
#	98092
#	109572
#	119377
#	127392
#	137885
#	148900
#	161450
#	172982
#	183302
#	193897
#
# Disc length: 2684 seconds
#
# Revision: 0
# Processed by: cddbd v1.5.1PL0 Copyright (c) Steve Scherf et al.
# Submitted via: dBpowerAMP V4.0
#
DISCID=010a7a12
DTITLE=Various Artist - Country Roads
DYEAR=1992
DGENRE=Country
TTITLE0=Johnny Cash - Hey Porter
TTITLE1=Kenny Rogers - For the good Times
TTITLE2=Donna fargo - All that's keep me alive
TTITLE3=Willie Nelson - I just don't understand
TTITLE4=Waylon Jennings - Don't think twice it's all richt
TTITLE5=Patsy Cline - I'm moving along
TTITLE6=Carl Perkins - I don't want to fall in love again
TTITLE7=Hoyt Axton - Lonesome road
TTITLE8=Dolly Parton - Makin' believe
TTITLE9=Conway Twitty - Ever since you went away
TTITLE10=Faron Young - Hey Mr Blue Bird
TTITLE11=Johnny Cash - You win again
TTITLE12=George Jones - Once a day
TTITLE13=Ray Pillow - You're one memory I like
TTITLE14=Patsy Cline - Let the teardrop fall
TTITLE15=Willie Nelson - You wouldn't cross the street to say Goodbye
TTITLE16=Conway Twitty - Let me be the judge
TTITLE17=Stonewall Jackson - Mary don't you weep
EXTD=
EXTT0=
EXTT1=
EXTT2=
EXTT3=
EXTT4=
EXTT5=
EXTT6=
EXTT7=
EXTT8=
EXTT9=
EXTT10=
EXTT11=
EXTT12=
EXTT13=
EXTT14=
EXTT15=
EXTT16=
EXTT17=
PLAYORDER=
